PathFileType	4	(X/Y/Z)	s02c0203.trc
DataRate	CameraRate	NumFrames	NumMarkers	Units	OrigDataRate	OrigDataStartFrame	OrigNumFrames
200	200	4	51	mm	200	1000	2000
Frame#	Time	racr			lacr			c7			jug			rlel			rdr			llel			ldr			s2			lic			ric			lasi			rasi			rpsi			lpsi			rgt			lgt			rth1			rth2			rth3			rth4			rlfc			rmfc			rsh1			rsh2			rsh3			rsh4			rlmal			rmmal			rcal			rtoe			rmt5			rmt1			lth1			lth2			lth4			lth3			llfc			lmfc			lsh1			lsh2			lsh3			lsh4			llmal			lmmal			lcal			ltoe			lmt5			SBIKE			LBIKE			RBIKE			
		X1	Y1	Z1	X2	Y2	Z2	X3	Y3	Z3	X4	Y4	Z4	X5	Y5	Z5	X6	Y6	Z6	X7	Y7	Z7	X8	Y8	Z8	X9	Y9	Z9	X10	Y10	Z10	X11	Y11	Z11	X12	Y12	Z12	X13	Y13	Z13	X14	Y14	Z14	X15	Y15	Z15	X16	Y16	Z16	X17	Y17	Z17	X18	Y18	Z18	X19	Y19	Z19	X20	Y20	Z20	X21	Y21	Z21	X22	Y22	Z22	X23	Y23	Z23	X24	Y24	Z24	X25	Y25	Z25	X26	Y26	Z26	X27	Y27	Z27	X28	Y28	Z28	X29	Y29	Z29	X30	Y30	Z30	X31	Y31	Z31	X32	Y32	Z32	X33	Y33	Z33	X34	Y34	Z34	X35	Y35	Z35	X36	Y36	Z36	X37	Y37	Z37	X38	Y38	Z38	X39	Y39	Z39	X40	Y40	Z40	X41	Y41	Z41	X42	Y42	Z42	X43	Y43	Z43	X44	Y44	Z44	X45	Y45	Z45	X46	Y46	Z46	X47	Y47	Z47	X48	Y48	Z48	X49	Y49	Z49	X50	Y50	Z50	X51	Y51	Z51	
1000	5.0000	555.908700	1226.028434	-196.849497	498.045969	1247.303841	-519.517367	511.231318	1283.244452	-358.952928	451.014031	1154.445189	-350.099291	567.364573	1015.916041	-31.801570	704.145318	887.547045	-120.844178	497.707927	990.310054	-636.112829	680.907606	891.704497	-544.608966	-6.758015	1114.054532	-297.500505	106.182068	1118.307763	-450.600921	121.312015	1101.765031	-157.060407	156.316497	1094.170442	-428.872481	172.594452	1080.765045	-191.539671	9.801848	1144.243057	-253.531248	12.408211	1155.015480	-342.144979	98.462565	1010.360768	-123.948873	83.437818	1034.093611	-482.117107	189.431303	961.710371	-127.634509	268.041480	921.547115	-131.738392	318.962897	855.605475	-110.859397	288.281126	941.956715	-156.539912	392.408243	734.021982	-142.719389	375.488391	718.672158	-252.051057	340.479794	634.390550	-129.722593	298.419919	556.315176	-149.694339	229.911072	505.820897	-142.461877	310.358579	551.195359	-186.391655	143.928637	426.090015	-147.252627	165.900555	436.639863	-228.136861	64.660619	446.735598	-193.012455	233.894726	214.863806	-189.366992	155.458216	291.796281	-133.701145	181.901811	277.366080	-241.142028	211.140294	976.288569	-500.626707	294.176377	950.242692	-500.592241	309.345632	977.076697	-483.166338	352.850372	882.986639	-503.269820	433.426543	818.456607	-484.258688	448.834740	787.794664	-384.026107	421.525638	713.662089	-504.583455	423.091472	628.098907	-489.956989	378.938786	549.044936	-491.364767	442.907949	626.572512	-454.161369	335.131016	451.438798	-477.641928	353.776598	449.487934	-400.996376	270.111466	395.199720	-441.183920	559.005942	384.288609	-446.743990	452.745541	360.901097	-508.943994	-129.072386	869.377942	-313.051542	32.477830	82.672010	-515.175748	32.269094	82.831875	-115.171875	
1001	5.0050	555.455364	1226.747607	-196.222637	497.989329	1247.494151	-519.024643	510.807069	1283.477562	-358.370977	451.228232	1154.386594	-349.448325	567.388744	1016.092462	-31.678574	704.182168	887.590910	-120.918145	497.167930	990.423731	-635.640491	680.808422	891.680935	-544.680802	-7.146767	1112.990950	-297.943052	106.362698	1117.492074	-451.126923	121.047032	1101.172605	-157.428241	156.466464	1093.115907	-428.852712	172.197501	1080.669412	-192.277063	9.538468	1142.769568	-254.068393	12.250105	1153.786151	-342.854414	99.117563	1009.802264	-124.008693	83.197025	1032.236521	-482.185188	190.410280	963.219994	-128.066011	269.901940	924.850744	-132.860855	322.734735	860.750967	-111.615908	289.239214	945.441934	-158.224792	397.700814	739.742139	-143.592572	380.548151	724.426924	-252.455472	344.772351	640.973504	-130.134556	301.427773	563.742868	-150.049239	232.269089	514.285022	-142.952496	313.186014	558.335562	-186.835596	144.872532	436.589346	-147.597874	167.124127	446.796763	-228.568456	65.801850	458.492250	-193.389716	231.423670	223.945953	-189.294247	154.208630	302.208693	-133.816658	180.446960	287.205519	-241.313819	210.200038	972.122896	-500.995127	292.775644	944.428066	-501.043460	309.173564	970.817706	-483.740633	349.934148	875.869297	-503.710744	429.861449	810.950602	-483.904412	444.914907	780.305213	-383.884516	418.771686	705.732242	-504.850446	422.205828	620.152849	-490.427211	380.261925	539.638212	-491.259669	442.082956	618.865747	-454.785893	337.697654	441.300865	-478.403469	356.139670	439.471472	-401.609510	272.643061	385.831145	-441.729779	561.614068	372.422561	-446.476539	455.274408	350.041043	-508.897327	-129.055743	869.365061	-313.075648	32.471984	82.638263	-515.150285	32.448623	82.562577	-115.258629	
1002	5.0100	555.023068	1227.498108	-195.506318	498.080530	1247.647644	-518.366836	510.425141	1283.781402	-357.623632	451.538089	1154.373292	-348.701364	567.437701	1016.278331	-31.469901	704.249350	887.605506	-120.972598	496.852617	990.420763	-635.153055	680.795461	891.401859	-544.779129	-7.057503	1111.872989	-298.631388	106.420418	1116.907186	-451.752742	120.816370	1100.676405	-157.839054	156.857943	1091.978488	-428.594338	171.702622	1080.617999	-193.153356	9.330382	1141.110950	-254.583070	12.107819	1152.309527	-343.164057	99.511740	1009.430961	-124.107378	82.992917	1030.573412	-482.315195	191.154574	964.949025	-128.284814	271.484170	928.387198	-134.423126	326.229680	866.076675	-112.295639	289.782866	949.295647	-159.588835	403.074834	746.086237	-144.111069	385.444764	730.462945	-252.930600	349.221976	647.859212	-130.409104	304.379099	571.441361	-150.469327	234.421974	523.187365	-143.373442	316.107649	565.751435	-187.187693	145.986250	447.157422	-147.956266	168.489874	456.836886	-229.109572	67.190774	470.171954	-193.721162	229.551082	233.373822	-189.455406	153.531515	312.784402	-134.004003	179.632917	297.243885	-241.396429	209.255467	968.081793	-501.681473	291.089778	938.446117	-501.156755	309.642128	964.571219	-485.260827	346.964151	869.014739	-503.417537	425.984035	803.148368	-483.744087	441.464747	772.491778	-383.108783	415.972425	697.908415	-504.894699	420.886972	612.399271	-490.988140	379.338987	531.836807	-491.960133	440.782981	611.275057	-455.277108	339.707407	431.275217	-479.171543	358.512340	429.755028	-402.337841	274.661954	376.515534	-442.436343	563.521199	360.359764	-446.122112	457.126114	339.103584	-508.911899	-129.077750	869.337545	-313.161663	32.480209	82.588170	-515.171890	32.829356	82.350299	-115.117396	
1003	5.0150	554.525132	1228.226431	-194.642004	498.317196	1247.824937	-517.566667	510.145932	1284.122769	-356.948980	451.688938	1154.522171	-347.992682	567.486386	1016.449658	-31.231504	704.319296	887.628510	-121.044867	496.735640	990.481497	-634.620410	680.839692	890.975052	-544.928494	-7.303973	1111.122423	-299.101992	106.965891	1115.921976	-452.226703	120.559382	1100.326393	-158.161505	157.606761	1090.510731	-428.671652	171.256306	1080.757275	-193.995875	9.081318	1139.194764	-255.605782	11.991995	1150.680816	-339.168019	99.860714	1009.246714	-124.073174	82.822219	1029.062937	-482.534584	191.555543	966.707493	-128.588560	272.755922	932.229085	-135.348473	329.325151	871.724043	-112.895404	290.609829	953.993048	-160.349489	408.106505	752.998763	-144.787507	390.557570	736.905594	-253.372401	352.961023	655.403838	-131.090725	307.449579	579.493606	-150.874461	236.844619	532.244269	-143.815703	319.130382	573.462289	-187.556018	147.370679	457.901485	-148.315775	170.191928	467.320536	-229.533371	68.790787	481.805117	-194.056798	228.562754	243.254898	-189.453099	153.454730	323.530268	-134.168576	179.237683	307.669316	-241.588942	208.219552	964.085671	-502.137803	289.379986	932.617908	-501.477383	309.450220	959.027135	-485.572742	343.624632	861.993104	-503.071834	421.675732	795.220141	-483.609569	438.162507	763.940126	-382.507357	412.752120	690.058391	-505.051897	419.194660	604.564629	-491.470737	378.815176	523.476636	-492.151078	438.895722	603.792677	-455.605188	341.117540	421.339198	-479.907915	359.888486	419.912040	-402.838297	276.609966	367.185092	-442.968048	564.864139	347.929980	-445.356373	458.375266	328.062857	-508.909985	-129.117652	869.273419	-313.269967	32.469815	82.571637	-515.174901	32.843757	82.400540	-115.168785	
